<?xml version="1.0" encoding="UTF-8" standalone="no"?>
<svg
   viewBox="0 0 16 16"
   version="1.1"
   id="svg7492"
   sodipodi:docname="check.svg"
   inkscape:version="1.1 (c68e22c387, 2021-05-23)"
   xmlns:inkscape="http://www.inkscape.org/namespaces/inkscape"
   xmlns:sodipodi="http://sodipodi.sourceforge.net/DTD/sodipodi-0.dtd"
   xmlns="http://www.w3.org/2000/svg"
   xmlns:svg="http://www.w3.org/2000/svg">
  <defs
     id="defs7496" />
  <sodipodi:namedview
     id="namedview7494"
     pagecolor="#ffffff"
     bordercolor="#666666"
     borderopacity="1.0"
     inkscape:pageshadow="2"
     inkscape:pageopacity="0.0"
     inkscape:pagecheckerboard="0"
     showgrid="false"
     inkscape:zoom="50.125"
     inkscape:cx="8.0099751"
     inkscape:cy="7.9700748"
     inkscape:window-width="1920"
     inkscape:window-height="991"
     inkscape:window-x="-9"
     inkscape:window-y="-9"
     inkscape:window-maximized="1"
     inkscape:current-layer="svg7492" />
  <path
     fill="none"
     stroke="#343a40"
     stroke-linecap="round"
     stroke-linejoin="round"
     stroke-width="2"
     d="M2 5l6 6 6-6"
     id="path7490" />
  <path
     style="fill:#ffffff;stroke:#ffffff;stroke-width:0.0199501"
     d="M 7.766075,11.959321 C 7.4741628,11.880698 7.6656461,12.060749 4.3331258,8.7313357 2.4388826,6.8388585 1.2245554,5.6109674 1.1762036,5.5391508 0.89903176,5.1274693 0.99412018,4.5297653 1.384137,4.2321292 1.709636,3.9837289 2.0656044,3.9436892 2.4339152,4.1140488 2.5555347,4.1703031 2.7324647,4.3427542 5.2817955,6.8898358 L 8,9.6056419 10.718204,6.8898358 c 2.549331,-2.5470816 2.726261,-2.7195327 2.847881,-2.775787 0.309618,-0.1432119 0.608407,-0.1369847 0.900634,0.018771 0.50639,0.2699034 0.675029,0.9340792 0.357077,1.4063312 -0.04835,0.071817 -1.262679,1.2997077 -3.156922,3.1921849 C 8.9108782,11.484762 8.5754863,11.813293 8.4639781,11.86871 8.2246787,11.987638 7.986179,12.018603 7.766075,11.959321 Z"
     id="path7742" />
</svg>
